<?xml version="1.0" encoding="UTF-8"?>
<svg version="1.1" xmlns="http://www.w3.org/2000/svg" width="500" height="500">
<path d="M0 0 C165 0 330 0 500 0 C500 165 500 330 500 500 C335 500 170 500 0 500 C0 335 0 170 0 0 Z " fill="#FEFEFE" transform="translate(0,0)"/>
<path d="M0 0 C76.23 0 152.46 0 231 0 C231 3.3 231 6.6 231 10 C154.77 10 78.54 10 0 10 C0 6.7 0 3.4 0 0 Z " fill="#802BB1" transform="translate(263,260)"/>
<path d="M0 0 C66.66 0 133.32 0 202 0 C202 3.3 202 6.6 202 10 C135.34 10 68.68 10 0 10 C0 6.7 0 3.4 0 0 Z " fill="#8534B4" transform="translate(21,238)"/>
<path d="M0 0 C4.95979287 2.85749384 8.8723289 6.99198669 10.6875 12.4375 C11.428915 19.28039581 10.77803621 24.7862669 6.6875 30.4375 C2.11577225 35.35993563 -2.49228995 37.49858548 -9.125 37.8125 C-15.00578277 37.67248136 -19.51270602 36.03781757 -23.84765625 32.01171875 C-28.59758923 26.65246492 -29.79757019 21.9264594 -29.62109375 14.9296875 C-28.81709873 8.43666441 -24.84426304 4.63990396 -19.99609375 0.6015625 C-14.50908864 -3.19223686 -5.88144619 -2.65686951 0 0 Z " fill="#8432B3" transform="translate(99.3125,186.5625)"/>
<path d="M0 0 C4.21433795 2.77763183 6.3955374 5.1866122 8 10 C8.82373406 16.94290134 9.08550277 23.55266298 4.7421875 29.34375 C0.16212246 33.69789255 -5.35876766 36.2403597 -11.6875 36.5 C-17.27871462 36.1351412 -21.45844195 34.29631017 -25.75 30.6875 C-30.59299355 24.90281327 -31.5543992 20.35057531 -31.3515625 12.91015625 C-30.69918263 7.50990067 -28.51972579 4.44179114 -24.5625 0.6875 C-16.68745033 -4.49850832 -8.20798359 -4.50634393 0 0 Z " fill="#8331B3" transform="translate(439,283)"/>
<path d="M0 0 C4.21433795 2.77763183 6.3955374 5.1866122 8 10 C8.82373406 16.94290134 9.08550277 23.55266298 4.7421875 29.34375 C0.16212246 33.69789255 -5.35876766 36.2403597 -11.6875 36.5 C-17.27871462 36.1351412 -21.45844195 34.29631017 -25.75 30.6875 C-30.59299355 24.90281327 -31.5543992 20.35057531 -31.3515625 12.91015625 C-30.69918263 7.50990067 -28.51972579 4.44179114 -24.5625 0.6875 C-16.68745033 -4.49850832 -8.20798359 -4.50634393 0 0 Z " fill="#8331B3" transform="translate(157,188)"/>
<path d="M0 0 C8 0 8 0 9.99389648 1.54467773 C10.67560913 2.60344116 10.67560913 2.60344116 11.37109375 3.68359375 C11.88220703 4.44607422 12.39332031 5.20855469 12.91992188 5.99414062 C13.42072266 6.80044922 13.92152344 7.60675781 14.4375 8.4375 C14.96537109 9.23994141 15.49324219 10.04238281 16.03710938 10.86914062 C17.00821413 12.34636673 17.96774467 13.83131147 18.91186523 15.32592773 C19.89314817 16.96231791 19.89314817 16.96231791 21 18 C21.32162109 17.45472656 21.64324219 16.90945312 21.97460938 16.34765625 C23.45352477 13.87928106 24.9755922 11.44051826 26.5 9 C27.0053125 8.14148438 27.510625 7.28296875 28.03125 6.3984375 C28.546875 5.58632812 29.0625 4.77421875 29.59375 3.9375 C30.05458984 3.18339844 30.51542969 2.42929688 30.99023438 1.65234375 C33 0 33 0 41 0 C41 12.21 41 24.42 41 37 C38.36 37 35.72 37 33 37 C32.505 26.605 32.505 26.605 32 16 C30.824375 17.98 29.64875 19.96 28.4375 22 C26.43359375 25.375 26.43359375 25.375 24 28 C20.46875 28.71875 20.46875 28.71875 17 28 C13.9333032 24.66828002 12.2222491 20.99097798 10 17 C9.67 23.6 9.34 30.2 9 37 C6.03 37 3.06 37 0 37 C0 24.79 0 12.58 0 0 Z " fill="#8331B3" transform="translate(183,186)"/>
<path d="M0 0 C3.485625 -0.12375 6.97125 -0.2475 10.5625 -0.375 C11.64732666 -0.42962402 12.73215332 -0.48424805 13.84985352 -0.54052734 C18.86834082 -0.62639236 22.19304289 -0.43632904 26.15234375 2.8359375 C29.28517229 5.87391764 29.91857388 8.31369412 30.4375 12.6875 C30.42768394 17.97835555 27.38948774 21.20700182 24 25 C24.433125 25.69867188 24.86625 26.39734375 25.3125 27.1171875 C25.869375 28.02726562 26.42625 28.93734375 27 29.875 C27.556875 30.77992188 28.11375 31.68484375 28.6875 32.6171875 C30 35 30 35 30 37 C26.7 37 23.4 37 20 37 C19.63648438 36.21753906 19.27296875 35.43507813 18.8984375 34.62890625 C18.39570313 33.61699219 17.89296875 32.60507812 17.375 31.5625 C16.88773437 30.55316406 16.40046875 29.54382813 15.8984375 28.50390625 C14.17195658 25.69262157 14.17195658 25.69262157 10.7890625 25.15234375 C9.86867188 25.10207031 8.94828125 25.05179687 8 25 C8 28.96 8 32.92 8 37 C5.36 37 2.72 37 0 37 C0 24.79 0 12.58 0 0 Z " fill="#822EB2" transform="translate(465,281)"/>
<path d="M0 0 C3.50625 -0.103125 7.0125 -0.20625 10.625 -0.3125 C11.71893066 -0.35802002 12.81286133 -0.40354004 13.93994141 -0.45043945 C22.01154642 -0.5651981 22.01154642 -0.5651981 25.6484375 2.39453125 C29.49119074 6.65219971 29.32962513 9.70263073 29.29296875 15.2890625 C28.90474346 18.88144049 27.73149278 20.67019733 25 23 C24.34 23 23.68 23 23 23 C23.63228516 24.13888672 23.63228516 24.13888672 24.27734375 25.30078125 C24.82519531 26.29464844 25.37304688 27.28851563 25.9375 28.3125 C26.48277344 29.29863281 27.02804688 30.28476563 27.58984375 31.30078125 C29 34 29 34 30 37 C26.49298162 37.62377797 23.47690404 37.86922601 20 37 C17.01854634 33.78562027 14 29.52663386 14 25 C12.02 25 10.04 25 8 25 C8 28.96 8 32.92 8 37 C5.36 37 2.72 37 0 37 C0 24.79 0 12.58 0 0 Z " fill="#812DB1" transform="translate(24,186)"/>
<path d="M0 0 C4.29678574 1.82526061 7.3598497 4.95391616 9.75 8.9375 C9.75 9.9275 9.75 10.9175 9.75 11.9375 C6.78 11.9375 3.81 11.9375 0.75 11.9375 C0.42 10.9475 0.09 9.9575 -0.25 8.9375 C-3.89247247 7.33481211 -8.35039739 7.35720199 -12.25 7.9375 C-15.0600346 9.73113911 -16.75940468 10.95630935 -18.25 13.9375 C-18.75866466 20.04147596 -18.30703618 23.04519166 -14.25 27.9375 C-11.04582279 29.5395886 -7.72660568 29.43035215 -4.25 28.9375 C-0.80687286 26.8130173 0.46617547 25.78897359 1.75 21.9375 C-1.88 21.9375 -5.51 21.9375 -9.25 21.9375 C-9.25 19.9575 -9.25 17.9775 -9.25 15.9375 C-2.65 15.9375 3.95 15.9375 10.75 15.9375 C10.75 23.33216686 10.6585091 26.22701593 6.75 31.9375 C2.29210377 36.2810912 -1.84289829 38.02289372 -8 38.375 C-13.666755 38.24813235 -17.81174401 36.41564347 -22.25 32.9375 C-26.95016026 27.74395276 -27.54989697 22.46969065 -27.4609375 15.7265625 C-27.05809838 10.4001342 -25.39231259 6.68838061 -21.3125 3.125 C-14.53074225 -1.71911268 -8.0560885 -2.50978142 0 0 Z " fill="#8331B3" transform="translate(284.25,281.0625)"/>
<path d="M0 0 C1.23556641 0.01740234 1.23556641 0.01740234 2.49609375 0.03515625 C3.32238281 0.04417969 4.14867187 0.05320312 5 0.0625 C5.63808594 0.07410156 6.27617187 0.08570313 6.93359375 0.09765625 C8.93179664 5.04381575 10.92550986 9.99175148 12.91503906 14.94140625 C13.59283564 16.62582497 14.27186792 18.30974699 14.95214844 19.99316406 C15.92836706 22.40951861 16.90016351 24.82761024 17.87109375 27.24609375 C18.17732666 28.00135345 18.48355957 28.75661316 18.79907227 29.53475952 C20.93359375 34.86991284 20.93359375 34.86991284 20.93359375 37.09765625 C17.96359375 37.09765625 14.99359375 37.09765625 11.93359375 37.09765625 C11.27359375 35.11765625 10.61359375 33.13765625 9.93359375 31.09765625 C4.65359375 31.09765625 -0.62640625 31.09765625 -6.06640625 31.09765625 C-6.56140625 33.57265625 -6.56140625 33.57265625 -7.06640625 36.09765625 C-8.06640625 37.09765625 -8.06640625 37.09765625 -10.1328125 37.1953125 C-10.95652344 37.18371094 -11.78023438 37.17210937 -12.62890625 37.16015625 C-13.45519531 37.15113281 -14.28148437 37.14210938 -15.1328125 37.1328125 C-15.77089844 37.12121094 -16.40898437 37.10960937 -17.06640625 37.09765625 C-3.3599533 0.15878796 -3.3599533 0.15878796 0 0 Z " fill="#8432B3" transform="translate(326.06640625,280.90234375)"/>
<path d="M0 0 C10.56 0 21.12 0 32 0 C32 2.64 32 5.28 32 8 C28.04 8 24.08 8 20 8 C20 17.57 20 27.14 20 37 C17.03 37 14.06 37 11 37 C11 27.1 11 17.2 11 7 C7.37 7 3.74 7 0 7 C0 4.69 0 2.38 0 0 Z " fill="#8534B4" transform="translate(361,281)"/>
<path d="M0 0 C3.44617085 1.25917781 5.46869724 2.41728084 7.9375 5.125 C9.48169656 9.30341423 9.23365197 12.7439007 8 17 C5.93910812 20.09133781 4.4476801 21.5494329 0.87890625 22.66015625 C-3.32416169 23.39020009 -5.51524474 23.22915703 -9.4375 21.375 C-12.98542813 18.08667637 -13.77218666 15.78453781 -14.375 11.0625 C-13.89385565 7.13315451 -12.44484357 5.07351763 -10 2 C-6.25816125 -0.49455917 -4.43756964 -0.37606522 0 0 Z " fill="#FAF7FC" transform="translate(430,288)"/>
<path d="M0 0 C3.44617085 1.25917781 5.46869724 2.41728084 7.9375 5.125 C9.48169656 9.30341423 9.23365197 12.7439007 8 17 C5.93910812 20.09133781 4.4476801 21.5494329 0.87890625 22.66015625 C-3.32416169 23.39020009 -5.51524474 23.22915703 -9.4375 21.375 C-12.98542813 18.08667637 -13.77218666 15.78453781 -14.375 11.0625 C-13.89385565 7.13315451 -12.44484357 5.07351763 -10 2 C-6.25816125 -0.49455917 -4.43756964 -0.37606522 0 0 Z " fill="#FAF7FC" transform="translate(148,193)"/>
<path d="M0 0 C3.62342508 1.6470114 6.16816086 3.4327343 8 7 C8.4085132 11.28938857 8.48025674 13.86254983 6.8125 17.8125 C3.95322073 21.26335429 1.51097024 22.77496188 -2.9375 23.4375 C-6.83530088 22.8806713 -8.93989651 21.43417323 -12 19 C-14.48239774 15.27640338 -14.59784051 12.91161203 -14.5078125 8.51953125 C-13.75438445 4.78136902 -12.04790089 3.16686165 -9.00390625 0.99609375 C-5.80388961 -0.5945578 -3.48773085 -0.58128847 0 0 Z " fill="#FCFAFD" transform="translate(93,193)"/>
<path d="M0 0 C1.588125 -0.061875 3.17625 -0.12375 4.8125 -0.1875 C6.15248047 -0.23970703 6.15248047 -0.23970703 7.51953125 -0.29296875 C10 0 10 0 11.8359375 1.28515625 C13 3 13 3 12.8125 6.625 C12.544375 7.73875 12.27625 8.8525 12 10 C9.47524538 11.26237731 7.68799534 11.09856404 4.875 11.0625 C3.26625 11.041875 1.6575 11.02125 0 11 C0 7.37 0 3.74 0 0 Z " fill="#F9F6FB" transform="translate(473,288)"/>
<path d="M0 0 C1.588125 -0.061875 3.17625 -0.12375 4.8125 -0.1875 C6.15248047 -0.23970703 6.15248047 -0.23970703 7.51953125 -0.29296875 C10 0 10 0 11.8359375 1.28515625 C13 3 13 3 12.8125 6.625 C12.544375 7.73875 12.27625 8.8525 12 10 C9.47524538 11.26237731 7.68799534 11.09856404 4.875 11.0625 C3.26625 11.041875 1.6575 11.02125 0 11 C0 7.37 0 3.74 0 0 Z " fill="#FBF9FC" transform="translate(32,193)"/>
<path d="M0 0 C2.05123248 2.05123248 2.64147118 3.27005063 3.625 5.9375 C3.88539063 6.62714844 4.14578125 7.31679688 4.4140625 8.02734375 C5 10 5 10 5 13 C1.7 13 -1.6 13 -5 13 C-4.54803755 11.39402675 -4.08817673 9.79027492 -3.625 8.1875 C-3.36976563 7.29417969 -3.11453125 6.40085937 -2.8515625 5.48046875 C-2 3 -2 3 0 0 Z " fill="#F4EEF8" transform="translate(328,292)"/>
</svg>
